<svg width="48" height="48" viewBox="0 0 48 48" fill="none" xmlns="http://www.w3.org/2000/svg">
<path d="M48 24C48 29.0683 46.3955 34.0065 43.4164 38.1068C40.4373 42.2072 36.2366 45.2592 31.4164 46.8254C26.5962 48.3915 21.4038 48.3915 16.5836 46.8254C11.7633 45.2592 7.56266 42.2072 4.58359 38.1068C1.60452 34.0065 -4.43085e-07 29.0683 0 24C4.43085e-07 18.9317 1.60452 13.9935 4.58359 9.89315C7.56267 5.79281 11.7634 2.74083 16.5836 1.17464C21.4038 -0.391548 26.5962 -0.391548 31.4164 1.17464L30.3039 4.59845C26.2067 3.26718 21.7933 3.26718 17.6961 4.59844C13.5988 5.92971 10.0283 8.52389 7.49605 12.0092C4.96384 15.4945 3.6 19.6919 3.6 24C3.6 28.3081 4.96384 32.5055 7.49605 35.9908C10.0283 39.4761 13.5988 42.0703 17.6961 43.4016C21.7933 44.7328 26.2067 44.7328 30.3039 43.4016C34.4012 42.0703 37.9717 39.4761 40.5039 35.9908C43.0362 32.5055 44.4 28.3081 44.4 24H48Z" fill="#7963FF"/>
<path fill-rule="evenodd" clip-rule="evenodd" d="M29.4854 18.4314C30.0606 17.8562 30.9933 17.8562 31.5686 18.4314C32.1368 18.9996 32.1437 19.9165 31.5895 20.4933L23.7486 30.2944C23.7373 30.3085 23.7252 30.322 23.7124 30.3349C23.1371 30.9101 22.2044 30.9101 21.6292 30.3349L16.4314 25.1371C15.8562 24.5619 15.8562 23.6292 16.4314 23.0539C17.0067 22.4787 17.9394 22.4787 18.5146 23.0539L22.6264 27.1657L29.4463 18.4755C29.4584 18.46 29.4715 18.4453 29.4854 18.4314Z" fill="#7963FF"/>
</svg>
