<svg width="20" height="20" viewBox="0 0 20 20" fill="none" xmlns="http://www.w3.org/2000/svg">
<path d="M10.0001 0.249695C4.62403 0.249695 0.250122 4.6236 0.250122 9.99969C0.250122 15.3758 4.62403 19.7497 10.0001 19.7497C15.3762 19.7497 19.7501 15.3758 19.7501 9.99969C19.7501 4.6236 15.3762 0.249695 10.0001 0.249695ZM15.0743 6.73204L8.77434 14.232C8.70523 14.3144 8.61924 14.3808 8.52219 14.427C8.42514 14.4732 8.3193 14.498 8.21184 14.4997H8.19918C8.09406 14.4997 7.99012 14.4775 7.8941 14.4347C7.79809 14.3919 7.71214 14.3294 7.64184 14.2513L4.94184 11.2513C4.87327 11.1785 4.81993 11.0928 4.78495 10.9992C4.74998 10.9056 4.73407 10.8059 4.73817 10.706C4.74227 10.6061 4.76629 10.5081 4.80882 10.4176C4.85136 10.3272 4.91154 10.2461 4.98584 10.1793C5.06014 10.1124 5.14706 10.0611 5.24148 10.0283C5.33591 9.99547 5.43593 9.98189 5.53568 9.9883C5.63543 9.99472 5.73289 10.021 5.82234 10.0656C5.91178 10.1102 5.99141 10.1723 6.05653 10.2481L8.1795 12.6069L13.9259 5.76735C14.0548 5.61833 14.2372 5.52601 14.4336 5.51036C14.63 5.49471 14.8247 5.55698 14.9755 5.68371C15.1264 5.81044 15.2214 5.99146 15.2398 6.18762C15.2583 6.38379 15.1989 6.57935 15.0743 6.73204V6.73204Z" fill="#68D391"/>
</svg>
